<?xml version="1.0" encoding="UTF-8" standalone="no"?>
<!DOCTYPE svg PUBLIC "-//W3C//DTD SVG 1.1//EN"
 "http://www.w3.org/Graphics/SVG/1.1/DTD/svg11.dtd">
<!-- Generated by graphviz version 2.43.0 (0)
 -->
<!-- Title: architecture Pages: 1 -->
<svg width="613pt" height="766pt"
 viewBox="0.00 0.00 612.69 766.00" xmlns="http://www.w3.org/2000/svg" xmlns:xlink="http://www.w3.org/1999/xlink">
<g id="graph0" class="graph" transform="scale(1 1) rotate(0) translate(4 762)">
<title>architecture</title>
<polygon fill="white" stroke="transparent" points="-4,4 -4,-762 608.69,-762 608.69,4 -4,4"/>
<!-- FILE -->
<g id="node1" class="node">
<title>FILE</title>
<polygon fill="none" stroke="black" points="270.5,-758 267.5,-762 246.5,-762 243.5,-758 77.5,-758 77.5,-720 270.5,-720 270.5,-758"/>
<text text-anchor="middle" x="174" y="-742.8" font-family="Times,serif" font-size="14.00">Ежемесячная выгрузка</text>
<text text-anchor="middle" x="174" y="-727.8" font-family="Times,serif" font-size="14.00">CSV / Excel</text>
</g>
<!-- AF_INGEST -->
<g id="node3" class="node">
<title>AF_INGEST</title>
<polygon fill="none" stroke="black" points="345.5,-684 166.5,-684 166.5,-648 345.5,-648 345.5,-684"/>
<text text-anchor="middle" x="256" y="-662.3" font-family="Times,serif" font-size="14.00">Airflow: DAG загрузки</text>
</g>
<!-- FILE&#45;&gt;AF_INGEST -->
<g id="edge1" class="edge">
<title>FILE&#45;&gt;AF_INGEST</title>
<path fill="none" stroke="black" d="M195.12,-719.72C205.35,-710.85 217.76,-700.11 228.71,-690.63"/>
<polygon fill="black" stroke="black" points="231.09,-693.2 236.36,-684 226.51,-687.9 231.09,-693.2"/>
</g>
<!-- ERP -->
<g id="node2" class="node">
<title>ERP</title>
<polygon fill="none" stroke="black" points="387,-757 384,-761 363,-761 360,-757 289,-757 289,-721 387,-721 387,-757"/>
<text text-anchor="middle" x="338" y="-735.3" font-family="Times,serif" font-size="14.00">ERP / DWH</text>
</g>
<!-- ERP&#45;&gt;AF_INGEST -->
<g id="edge2" class="edge">
<title>ERP&#45;&gt;AF_INGEST</title>
<path fill="none" stroke="black" d="M318.15,-720.81C307.67,-711.74 294.66,-700.48 283.26,-690.6"/>
<polygon fill="black" stroke="black" points="285.52,-687.93 275.67,-684.03 280.94,-693.22 285.52,-687.93"/>
</g>
<!-- STG -->
<g id="node4" class="node">
<title>STG</title>
<path fill="none" stroke="black" d="M282,-608.73C282,-610.53 246.59,-612 203,-612 159.41,-612 124,-610.53 124,-608.73 124,-608.73 124,-579.27 124,-579.27 124,-577.47 159.41,-576 203,-576 246.59,-576 282,-577.47 282,-579.27 282,-579.27 282,-608.73 282,-608.73"/>
<path fill="none" stroke="black" d="M282,-608.73C282,-606.92 246.59,-605.45 203,-605.45 159.41,-605.45 124,-606.92 124,-608.73"/>
<text text-anchor="middle" x="203" y="-590.3" font-family="Times,serif" font-size="14.00">Postgres — Staging</text>
</g>
<!-- AF_INGEST&#45;&gt;STG -->
<g id="edge3" class="edge">
<title>AF_INGEST&#45;&gt;STG</title>
<path fill="none" stroke="black" d="M242.9,-647.7C236.61,-639.39 228.95,-629.28 222.04,-620.14"/>
<polygon fill="black" stroke="black" points="224.78,-617.96 215.95,-612.1 219.2,-622.19 224.78,-617.96"/>
</g>
<!-- ALERTS -->
<g id="node15" class="node">
<title>ALERTS</title>
<polygon fill="none" stroke="black" points="386,-324 254,-324 254,-288 392,-288 392,-318 386,-324"/>
<polyline fill="none" stroke="black" points="386,-324 386,-318 "/>
<polyline fill="none" stroke="black" points="392,-318 386,-318 "/>
<text text-anchor="middle" x="323" y="-302.3" font-family="Times,serif" font-size="14.00">Email / Telegram</text>
</g>
<!-- AF_INGEST&#45;&gt;ALERTS -->
<g id="edge15" class="edge">
<title>AF_INGEST&#45;&gt;ALERTS</title>
<path fill="none" stroke="black" d="M269.44,-647.65C276.66,-637.67 285.22,-624.64 291,-612 308.08,-574.63 316,-564.09 316,-523 316,-523 316,-523 316,-449 316,-408.95 318.81,-362.62 320.87,-334.06"/>
<polygon fill="black" stroke="black" points="324.37,-334.27 321.62,-324.04 317.39,-333.75 324.37,-334.27"/>
</g>
<!-- FE -->
<g id="node5" class="node">
<title>FE</title>
<polygon fill="none" stroke="black" points="271.5,-540 122.5,-540 122.5,-504 271.5,-504 271.5,-540"/>
<text text-anchor="middle" x="197" y="-518.3" font-family="Times,serif" font-size="14.00">Фиче&#45;инженеринг</text>
</g>
<!-- STG&#45;&gt;FE -->
<g id="edge4" class="edge">
<title>STG&#45;&gt;FE</title>
<path fill="none" stroke="black" d="M201.52,-575.7C200.86,-567.98 200.06,-558.71 199.32,-550.11"/>
<polygon fill="black" stroke="black" points="202.81,-549.77 198.47,-540.1 195.83,-550.37 202.81,-549.77"/>
</g>
<!-- QC -->
<g id="node6" class="node">
<title>QC</title>
<polygon fill="none" stroke="black" points="281.5,-468 104.5,-468 104.5,-432 281.5,-432 281.5,-468"/>
<text text-anchor="middle" x="193" y="-446.3" font-family="Times,serif" font-size="14.00">Классификация A/B/C</text>
</g>
<!-- FE&#45;&gt;QC -->
<g id="edge5" class="edge">
<title>FE&#45;&gt;QC</title>
<path fill="none" stroke="black" d="M196.01,-503.7C195.57,-495.98 195.04,-486.71 194.55,-478.11"/>
<polygon fill="black" stroke="black" points="198.04,-477.89 193.98,-468.1 191.05,-478.29 198.04,-477.89"/>
</g>
<!-- TRAIN -->
<g id="node7" class="node">
<title>TRAIN</title>
<polygon fill="none" stroke="black" points="270.5,-396 115.5,-396 115.5,-360 270.5,-360 270.5,-396"/>
<text text-anchor="middle" x="193" y="-374.3" font-family="Times,serif" font-size="14.00">Обучение моделей</text>
</g>
<!-- QC&#45;&gt;TRAIN -->
<g id="edge6" class="edge">
<title>QC&#45;&gt;TRAIN</title>
<path fill="none" stroke="black" d="M193,-431.7C193,-423.98 193,-414.71 193,-406.11"/>
<polygon fill="black" stroke="black" points="196.5,-406.1 193,-396.1 189.5,-406.1 196.5,-406.1"/>
</g>
<!-- SCORE -->
<g id="node9" class="node">
<title>SCORE</title>
<polygon fill="none" stroke="black" points="194,-252 48,-252 48,-216 194,-216 194,-252"/>
<text text-anchor="middle" x="121" y="-230.3" font-family="Times,serif" font-size="14.00">Скоринг моделей</text>
</g>
<!-- QC&#45;&gt;SCORE -->
<g id="edge8" class="edge">
<title>QC&#45;&gt;SCORE</title>
<path fill="none" stroke="black" d="M149.77,-431.9C133.66,-423.43 116.7,-411.61 106,-396 78.66,-356.13 81.37,-334.93 93,-288 95.29,-278.75 99.53,-269.34 104.02,-261.07"/>
<polygon fill="black" stroke="black" points="107.13,-262.68 109.11,-252.28 101.07,-259.17 107.13,-262.68"/>
</g>
<!-- MLFLOW -->
<g id="node8" class="node">
<title>MLFLOW</title>
<polygon fill="none" stroke="black" points="236,-324 102,-324 102,-288 236,-288 236,-324"/>
<text text-anchor="middle" x="169" y="-302.3" font-family="Times,serif" font-size="14.00">MLflow Registry</text>
</g>
<!-- TRAIN&#45;&gt;MLFLOW -->
<g id="edge7" class="edge">
<title>TRAIN&#45;&gt;MLFLOW</title>
<path fill="none" stroke="black" d="M187.07,-359.7C184.39,-351.9 181.17,-342.51 178.2,-333.83"/>
<polygon fill="black" stroke="black" points="181.42,-332.43 174.86,-324.1 174.8,-334.7 181.42,-332.43"/>
</g>
<!-- TRAIN&#45;&gt;ALERTS -->
<g id="edge16" class="edge">
<title>TRAIN&#45;&gt;ALERTS</title>
<path fill="none" stroke="black" d="M224.8,-359.88C242.11,-350.55 263.72,-338.92 282.26,-328.94"/>
<polygon fill="black" stroke="black" points="283.93,-332.01 291.08,-324.19 280.61,-325.85 283.93,-332.01"/>
</g>
<!-- MLFLOW&#45;&gt;SCORE -->
<g id="edge9" class="edge">
<title>MLFLOW&#45;&gt;SCORE</title>
<path fill="none" stroke="black" d="M157.13,-287.7C151.5,-279.47 144.65,-269.48 138.43,-260.42"/>
<polygon fill="black" stroke="black" points="141.27,-258.37 132.73,-252.1 135.5,-262.33 141.27,-258.37"/>
</g>
<!-- MART -->
<g id="node10" class="node">
<title>MART</title>
<path fill="none" stroke="black" d="M242,-176.73C242,-178.53 187.77,-180 121,-180 54.23,-180 0,-178.53 0,-176.73 0,-176.73 0,-147.27 0,-147.27 0,-145.47 54.23,-144 121,-144 187.77,-144 242,-145.47 242,-147.27 242,-147.27 242,-176.73 242,-176.73"/>
<path fill="none" stroke="black" d="M242,-176.73C242,-174.92 187.77,-173.45 121,-173.45 54.23,-173.45 0,-174.92 0,-176.73"/>
<text text-anchor="middle" x="121" y="-158.3" font-family="Times,serif" font-size="14.00">Postgres — витрина прогнозов</text>
</g>
<!-- SCORE&#45;&gt;MART -->
<g id="edge10" class="edge">
<title>SCORE&#45;&gt;MART</title>
<path fill="none" stroke="black" d="M121,-215.7C121,-207.98 121,-198.71 121,-190.11"/>
<polygon fill="black" stroke="black" points="124.5,-190.1 121,-180.1 117.5,-190.1 124.5,-190.1"/>
</g>
<!-- API -->
<g id="node11" class="node">
<title>API</title>
<polygon fill="none" stroke="black" points="181,-108 61,-108 61,-72 181,-72 181,-108"/>
<text text-anchor="middle" x="121" y="-86.3" font-family="Times,serif" font-size="14.00">FastAPI — API</text>
</g>
<!-- MART&#45;&gt;API -->
<g id="edge11" class="edge">
<title>MART&#45;&gt;API</title>
<path fill="none" stroke="black" d="M121,-143.7C121,-135.98 121,-126.71 121,-118.11"/>
<polygon fill="black" stroke="black" points="124.5,-118.1 121,-108.1 117.5,-118.1 124.5,-118.1"/>
</g>
<!-- UI -->
<g id="node12" class="node">
<title>UI</title>
<polygon fill="none" stroke="black" points="350.5,-36 281.5,-36 281.5,0 350.5,0 350.5,-36"/>
<text text-anchor="middle" x="316" y="-14.3" font-family="Times,serif" font-size="14.00">Web UI</text>
</g>
<!-- API&#45;&gt;UI -->
<g id="edge12" class="edge">
<title>API&#45;&gt;UI</title>
<path fill="none" stroke="black" d="M168.7,-71.88C200.14,-60.59 241.02,-45.92 271.74,-34.89"/>
<polygon fill="black" stroke="black" points="273.1,-38.12 281.33,-31.45 270.73,-31.53 273.1,-38.12"/>
</g>
<!-- FD -->
<g id="node13" class="node">
<title>FD</title>
<ellipse fill="none" stroke="black" cx="316" cy="-90" rx="116.98" ry="18"/>
<text text-anchor="middle" x="316" y="-86.3" font-family="Times,serif" font-size="14.00">Финансовый директор</text>
</g>
<!-- FD&#45;&gt;UI -->
<g id="edge13" class="edge">
<title>FD&#45;&gt;UI</title>
<path fill="none" stroke="black" d="M316,-71.7C316,-63.98 316,-54.71 316,-46.11"/>
<polygon fill="black" stroke="black" points="319.5,-46.1 316,-36.1 312.5,-46.1 319.5,-46.1"/>
</g>
<!-- TREAS -->
<g id="node14" class="node">
<title>TREAS</title>
<ellipse fill="none" stroke="black" cx="528" cy="-90" rx="76.89" ry="18"/>
<text text-anchor="middle" x="528" y="-86.3" font-family="Times,serif" font-size="14.00">Казначейство</text>
</g>
<!-- TREAS&#45;&gt;UI -->
<g id="edge14" class="edge">
<title>TREAS&#45;&gt;UI</title>
<path fill="none" stroke="black" d="M485.35,-74.92C449.1,-62.95 397.24,-45.82 360.47,-33.68"/>
<polygon fill="black" stroke="black" points="361.12,-30.21 350.53,-30.4 358.93,-36.86 361.12,-30.21"/>
</g>
</g>
</svg>
